<svg width="16" height="22" viewBox="0 0 16 22" fill="none" xmlns="http://www.w3.org/2000/svg">
<path d="M8 16.4847L12.243 12.2427C13.082 11.4036 13.6534 10.3345 13.8848 9.1706C14.1162 8.00674 13.9973 6.80039 13.5432 5.70409C13.089 4.60779 12.32 3.67078 11.3333 3.01154C10.3466 2.3523 9.18665 2.00043 8 2.00043C6.81336 2.00043 5.65336 2.3523 4.66669 3.01154C3.68002 3.67078 2.91098 4.60779 2.45682 5.70409C2.00267 6.80039 1.88379 8.00674 2.11522 9.1706C2.34665 10.3345 2.91799 11.4036 3.757 12.2427L8 16.4847ZM13.657 13.6567L8 19.3137L2.343 13.6567C1.22422 12.5379 0.46234 11.1124 0.153691 9.56057C-0.154957 8.00873 0.00349361 6.40022 0.609007 4.93844C1.21452 3.47665 2.2399 2.22725 3.55548 1.34821C4.87107 0.469181 6.41777 0 8 0C9.58224 0 11.1289 0.469181 12.4445 1.34821C13.7601 2.22725 14.7855 3.47665 15.391 4.93844C15.9965 6.40022 16.155 8.00873 15.8463 9.56057C15.5377 11.1124 14.7758 12.5379 13.657 13.6567ZM1 19.9997H15V21.9997H1V19.9997Z" fill="#122947"/>
</svg>
